<svg width="40" height="40" viewBox="0 0 40 40" fill="none" xmlns="http://www.w3.org/2000/svg">
<rect width="40" height="40" rx="20" fill="#DBEAFE"/>
<path d="M23.3332 27.5V25.8333C23.3332 24.9493 22.982 24.1014 22.3569 23.4763C21.7317 22.8512 20.8839 22.5 19.9998 22.5H14.9998C14.1158 22.5 13.2679 22.8512 12.6428 23.4763C12.0177 24.1014 11.6665 24.9493 11.6665 25.8333V27.5" stroke="#155DFC" stroke-width="1.66667" stroke-linecap="round" stroke-linejoin="round"/>
<path d="M17.4998 19.1667C19.3408 19.1667 20.8332 17.6743 20.8332 15.8333C20.8332 13.9924 19.3408 12.5 17.4998 12.5C15.6589 12.5 14.1665 13.9924 14.1665 15.8333C14.1665 17.6743 15.6589 19.1667 17.4998 19.1667Z" stroke="#155DFC" stroke-width="1.66667" stroke-linecap="round" stroke-linejoin="round"/>
<path d="M28.3335 27.5001V25.8334C28.3329 25.0948 28.0871 24.3774 27.6346 23.7937C27.1821 23.2099 26.5486 22.793 25.8335 22.6084" stroke="#155DFC" stroke-width="1.66667" stroke-linecap="round" stroke-linejoin="round"/>
<path d="M23.3335 12.6084C24.0505 12.792 24.686 13.209 25.1399 13.7937C25.5937 14.3783 25.84 15.0974 25.84 15.8376C25.84 16.5777 25.5937 17.2968 25.1399 17.8815C24.686 18.4661 24.0505 18.8831 23.3335 19.0667" stroke="#155DFC" stroke-width="1.66667" stroke-linecap="round" stroke-linejoin="round"/>
</svg>
