<svg width="48" height="48" viewBox="0 0 48 48" fill="none" xmlns="http://www.w3.org/2000/svg">
<rect width="48" height="48" rx="20" fill="#4CAF50" fill-opacity="0.1"/>
<path d="M29 17.3335H19C18.0795 17.3335 17.3333 18.0797 17.3333 19.0002V29.0002C17.3333 29.9206 18.0795 30.6668 19 30.6668H29C29.9205 30.6668 30.6667 29.9206 30.6667 29.0002V19.0002C30.6667 18.0797 29.9205 17.3335 29 17.3335Z" stroke="#4CAF50" stroke-width="1.66667" stroke-linecap="round" stroke-linejoin="round"/>
<path d="M25.6667 21.5H22.3333C21.8731 21.5 21.5 21.8731 21.5 22.3333V25.6667C21.5 26.1269 21.8731 26.5 22.3333 26.5H25.6667C26.1269 26.5 26.5 26.1269 26.5 25.6667V22.3333C26.5 21.8731 26.1269 21.5 25.6667 21.5Z" stroke="#4CAF50" stroke-width="1.66667" stroke-linecap="round" stroke-linejoin="round"/>
<path d="M26.5 15.6665V17.3332" stroke="#4CAF50" stroke-width="1.66667" stroke-linecap="round" stroke-linejoin="round"/>
<path d="M26.5 30.6665V32.3332" stroke="#4CAF50" stroke-width="1.66667" stroke-linecap="round" stroke-linejoin="round"/>
<path d="M15.6667 26.5H17.3333" stroke="#4CAF50" stroke-width="1.66667" stroke-linecap="round" stroke-linejoin="round"/>
<path d="M15.6667 21.5H17.3333" stroke="#4CAF50" stroke-width="1.66667" stroke-linecap="round" stroke-linejoin="round"/>
<path d="M30.6667 26.5H32.3333" stroke="#4CAF50" stroke-width="1.66667" stroke-linecap="round" stroke-linejoin="round"/>
<path d="M30.6667 21.5H32.3333" stroke="#4CAF50" stroke-width="1.66667" stroke-linecap="round" stroke-linejoin="round"/>
<path d="M21.5 15.6665V17.3332" stroke="#4CAF50" stroke-width="1.66667" stroke-linecap="round" stroke-linejoin="round"/>
<path d="M21.5 30.6665V32.3332" stroke="#4CAF50" stroke-width="1.66667" stroke-linecap="round" stroke-linejoin="round"/>
</svg>
