<svg width="20" height="20" viewBox="0 0 20 20" fill="none" xmlns="http://www.w3.org/2000/svg">
<path d="M12.5 1.66675H5.00004C4.55801 1.66675 4.13409 1.84234 3.82153 2.1549C3.50897 2.46746 3.33337 2.89139 3.33337 3.33341V16.6667C3.33337 17.1088 3.50897 17.5327 3.82153 17.8453C4.13409 18.1578 4.55801 18.3334 5.00004 18.3334H15C15.4421 18.3334 15.866 18.1578 16.1786 17.8453C16.4911 17.5327 16.6667 17.1088 16.6667 16.6667V5.83341L12.5 1.66675Z" stroke="#6B7280" stroke-width="1.66667" stroke-linecap="round" stroke-linejoin="round"/>
<path d="M11.6666 1.66675V5.00008C11.6666 5.44211 11.8422 5.86603 12.1548 6.17859C12.4673 6.49115 12.8913 6.66675 13.3333 6.66675H16.6666" stroke="#6B7280" stroke-width="1.66667" stroke-linecap="round" stroke-linejoin="round"/>
<path d="M8.33329 7.5H6.66663" stroke="#6B7280" stroke-width="1.66667" stroke-linecap="round" stroke-linejoin="round"/>
<path d="M13.3333 10.8333H6.66663" stroke="#6B7280" stroke-width="1.66667" stroke-linecap="round" stroke-linejoin="round"/>
<path d="M13.3333 14.1667H6.66663" stroke="#6B7280" stroke-width="1.66667" stroke-linecap="round" stroke-linejoin="round"/>
</svg>
