<svg width="40" height="40" viewBox="0 0 40 40" fill="none" xmlns="http://www.w3.org/2000/svg">
<rect width="40" height="40" rx="20" fill="#4CAF50" fill-opacity="0.1"/>
<path d="M28.3332 19.9998H26.2665C25.9023 19.9991 25.5479 20.1176 25.2574 20.3373C24.967 20.557 24.7565 20.8658 24.6582 21.2165L22.6998 28.1832C22.6872 28.2264 22.6609 28.2645 22.6248 28.2915C22.5888 28.3186 22.5449 28.3332 22.4998 28.3332C22.4548 28.3332 22.4109 28.3186 22.3748 28.2915C22.3388 28.2645 22.3125 28.2264 22.2998 28.1832L17.6998 11.8165C17.6872 11.7732 17.6609 11.7352 17.6248 11.7082C17.5888 11.6811 17.5449 11.6665 17.4998 11.6665C17.4548 11.6665 17.4109 11.6811 17.3748 11.7082C17.3388 11.7352 17.3125 11.7732 17.2998 11.8165L15.3415 18.7832C15.2436 19.1325 15.0343 19.4403 14.7456 19.6598C14.4568 19.8794 14.1043 19.9988 13.7415 19.9998H11.6665" stroke="#4CAF50" stroke-width="1.66667" stroke-linecap="round" stroke-linejoin="round"/>
</svg>
