<svg width="48" height="48" viewBox="0 0 48 48" fill="none" xmlns="http://www.w3.org/2000/svg">
<rect width="48" height="48" rx="20" fill="#4CAF50" fill-opacity="0.1"/>
<path d="M27.3334 31.5V29.8333C27.3334 28.9493 26.9822 28.1014 26.357 27.4763C25.7319 26.8512 24.8841 26.5 24 26.5H19C18.116 26.5 17.2681 26.8512 16.643 27.4763C16.0179 28.1014 15.6667 28.9493 15.6667 29.8333V31.5" stroke="#4CAF50" stroke-width="1.66667" stroke-linecap="round" stroke-linejoin="round"/>
<path d="M21.5 23.1667C23.341 23.1667 24.8334 21.6743 24.8334 19.8333C24.8334 17.9924 23.341 16.5 21.5 16.5C19.6591 16.5 18.1667 17.9924 18.1667 19.8333C18.1667 21.6743 19.6591 23.1667 21.5 23.1667Z" stroke="#4CAF50" stroke-width="1.66667" stroke-linecap="round" stroke-linejoin="round"/>
<path d="M32.3333 31.5001V29.8334C32.3328 29.0948 32.0869 28.3774 31.6345 27.7937C31.182 27.2099 30.5484 26.793 29.8333 26.6084" stroke="#4CAF50" stroke-width="1.66667" stroke-linecap="round" stroke-linejoin="round"/>
<path d="M27.3333 16.6084C28.0503 16.792 28.6858 17.209 29.1397 17.7937C29.5935 18.3783 29.8398 19.0974 29.8398 19.8376C29.8398 20.5777 29.5935 21.2968 29.1397 21.8815C28.6858 22.4661 28.0503 22.8831 27.3333 23.0667" stroke="#4CAF50" stroke-width="1.66667" stroke-linecap="round" stroke-linejoin="round"/>
</svg>
